<svg version="1.1" xmlns="http://www.w3.org/2000/svg" xmlns:xlink="http://www.w3.org/1999/xlink" viewBox="0 0 172 172"><defs><linearGradient x1="45.45817" y1="16.45467" x2="127.495" y2="149.93025" gradientUnits="userSpaceOnUse" id="color-1"><stop offset="0" stop-color="#33bef0"></stop><stop offset="1" stop-color="#0a85d9"></stop></linearGradient><radialGradient cx="86.00222" cy="55.18557" r="14.2915" gradientUnits="userSpaceOnUse" id="color-2"><stop offset="0.516" stop-color="#000000"></stop><stop offset="1" stop-color="#000000" stop-opacity="0"></stop></radialGradient></defs><g fill="none" fill-rule="nonzero" stroke="none" stroke-width="1" stroke-linecap="butt" stroke-linejoin="miter" stroke-miterlimit="10" stroke-dasharray="" stroke-dashoffset="0" font-family="none" font-weight="none" font-size="none" text-anchor="none" style="mix-blend-mode: normal"><path d="M0,172v-172h172v172z" fill="none"></path><g><path d="M150.5,28.66667h-129c-3.95958,0 -7.16667,3.20708 -7.16667,7.16667v93.16667c0,3.95958 3.20708,7.16667 7.16667,7.16667h28.66667v28.6595c0,3.19275 3.85925,4.79092 6.11675,2.53342l31.19292,-31.19292h63.02367c3.95958,0 7.16667,-3.20708 7.16667,-7.16667v-93.16667c0,-3.95958 -3.20708,-7.16667 -7.16667,-7.16667z" fill="url(#color-1)"></path><path d="M78.83333,121.83333h14.33333c1.978,0 3.58333,-1.60533 3.58333,-3.58333v-43c0,-1.978 -1.60533,-3.58333 -3.58333,-3.58333h-14.33333c-1.978,0 -3.58333,1.60533 -3.58333,3.58333v43c0,1.978 1.60533,3.58333 3.58333,3.58333z" fill="#000000" opacity="0.05"></path><path d="M79.64675,120.04167h12.71008c1.43692,0 2.60508,-1.16458 2.60508,-2.60508v-41.37317c0,-1.43692 -1.16458,-2.60508 -2.60508,-2.60508h-12.71008c-1.43692,0 -2.60508,1.16458 -2.60508,2.60508v41.37675c0,1.43692 1.16458,2.6015 2.60508,2.6015z" fill="#000000" opacity="0.07"></path><ellipse cx="24" cy="15.402" transform="scale(3.58333,3.58333)" rx="3.988" ry="3.609" fill="url(#color-2)" opacity="0.15"></ellipse><path d="M86,63.53967c6.09167,0 9.49583,-3.827 9.49583,-8.557c0,-4.73 -3.59408,-8.39933 -9.49583,-8.39933c-5.90175,0 -9.49583,3.66933 -9.49583,8.39933c0,4.73 3.40417,8.557 9.49583,8.557z" fill="#ffffff"></path><rect x="22" y="21" transform="scale(3.58333,3.58333)" width="4" height="12" fill="#ffffff"></rect></g></g></svg>