<svg version="1.1" xmlns="http://www.w3.org/2000/svg" xmlns:xlink="http://www.w3.org/1999/xlink" viewBox="0 0 172 172"><defs><linearGradient x1="22.231" y1="22.231" x2="153.58883" y2="153.58883" gradientUnits="userSpaceOnUse" id="color-1"><stop offset="0" stop-color="#f44f5a"></stop><stop offset="0.443" stop-color="#ee3d4a"></stop><stop offset="1" stop-color="#e52030"></stop></linearGradient></defs><g fill="none" fill-rule="nonzero" stroke="none" stroke-width="1" stroke-linecap="butt" stroke-linejoin="miter" stroke-miterlimit="10" stroke-dasharray="" stroke-dashoffset="0" font-family="none" font-weight="none" font-size="none" text-anchor="none" style="mix-blend-mode: normal"><path d="M0,172v-172h172v172z" fill="none"></path><g><path d="M143.33333,21.5h-114.66667c-3.95958,0 -7.16667,3.20708 -7.16667,7.16667v114.66667c0,3.95958 3.20708,7.16667 7.16667,7.16667h114.66667c3.95958,0 7.16667,-3.20708 7.16667,-7.16667v-114.66667c0,-3.95958 -3.20708,-7.16667 -7.16667,-7.16667z" fill="url(#color-1)"></path><path d="M118.938,103.7375l-17.73392,-17.7375l17.7375,-17.7375c2.79858,-2.79858 2.79858,-7.33508 0,-10.13367l-5.06683,-5.06683c-2.79858,-2.79858 -7.33508,-2.79858 -10.13367,0l-17.74108,17.73392l-17.7375,-17.7375c-2.79858,-2.79858 -7.33508,-2.79858 -10.13367,0l-5.06683,5.06683c-2.79858,2.79858 -2.79858,7.33508 0,10.13367l17.7375,17.7375l-17.7375,17.7375c-2.79858,2.79858 -2.79858,7.33508 0,10.13367l5.06683,5.06683c2.79858,2.79858 7.33508,2.79858 10.13367,0l17.7375,-17.7375l17.7375,17.7375c2.79858,2.79858 7.33508,2.79858 10.13367,0l5.06683,-5.06683c2.79858,-2.795 2.79858,-7.3315 0,-10.13008z" fill="#000000" opacity="0.05"></path><path d="M117.67308,105.00242l-19.00242,-19.00242l19.00242,-19.00242c2.09983,-2.09983 2.09983,-5.504 0,-7.60025l-5.06683,-5.06683c-2.09983,-2.09983 -5.504,-2.09983 -7.60025,0l-19.006,18.99883l-19.00242,-19.00242c-2.09983,-2.09983 -5.504,-2.09983 -7.60025,0l-5.06683,5.06683c-2.09983,2.09983 -2.09983,5.504 0,7.60025l18.99883,19.006l-19.00242,19.00242c-2.09983,2.09983 -2.09983,5.504 0,7.60025l5.06683,5.06683c2.09983,2.09983 5.504,2.09983 7.60025,0l19.006,-18.99883l19.00242,19.00242c2.09983,2.09983 5.504,2.09983 7.60025,0l5.06683,-5.06683c2.10342,-2.09983 2.10342,-5.504 0.00358,-7.60383z" fill="#000000" opacity="0.07"></path><path d="M111.33775,55.59542l5.06683,5.06683c1.40108,1.40108 1.40108,3.66933 0,5.06683l-50.6755,50.6755c-1.40108,1.40108 -3.66933,1.40108 -5.06683,0l-5.06683,-5.06683c-1.40108,-1.40108 -1.40108,-3.66933 0,-5.06683l50.6755,-50.6755c1.3975,-1.40108 3.66933,-1.40108 5.06683,0z" fill="#ffffff"></path><path d="M116.40458,111.33775l-5.06683,5.06683c-1.40108,1.40108 -3.66933,1.40108 -5.06683,0l-50.6755,-50.6755c-1.40108,-1.40108 -1.40108,-3.66933 0,-5.06683l5.06683,-5.06683c1.40108,-1.40108 3.66933,-1.40108 5.06683,0l50.6755,50.6755c1.40108,1.3975 1.40108,3.66933 0,5.06683z" fill="#ffffff"></path></g></g></svg>